<svg width="1000" height="1000" viewBox="0 0 1000 1000" fill="none" xmlns="http://www.w3.org/2000/svg">
<g clip-path="url(#clip0_30_2200)">
<mask id="mask0_30_2200" style="mask-type:luminance" maskUnits="userSpaceOnUse" x="0" y="0" width="1000" height="1000">
<path d="M1000 0H0V1000H1000V0Z" fill="white" style="fill:white;fill-opacity:1;"/>
</mask>
<g mask="url(#mask0_30_2200)">
<path d="M922.91 992.35C961.26 992.35 992.35 961.26 992.35 922.91V77.09C992.35 38.74 961.26 7.64999 922.91 7.64999H77.0904C38.7404 7.64999 7.65039 38.74 7.65039 77.09V922.91C7.65039 961.26 38.7404 992.35 77.0904 992.35H922.91Z" fill="#F7F4ED" style="fill:#F7F4ED;fill:color(display-p3 0.9686 0.9569 0.9294);fill-opacity:1;"/>
<path d="M718.221 911.22C821.761 911.22 905.701 827.28 905.701 723.74C905.701 620.2 821.761 536.26 718.221 536.26H281.781C178.241 536.26 94.3008 620.2 94.3008 723.74C94.3008 827.28 178.241 911.22 281.781 911.22H718.221Z" fill="#DBE875" style="fill:#DBE875;fill:color(display-p3 0.8588 0.9098 0.4588);fill-opacity:1;"/>
<path d="M707.08 871.02C788.91 871.02 855.26 804.67 855.26 722.84C855.26 641.01 788.91 574.66 707.08 574.66C625.25 574.66 558.9 641.01 558.9 722.84C558.9 804.67 625.25 871.02 707.08 871.02Z" fill="#00544F" style="fill:#00544F;fill:color(display-p3 0.0000 0.3294 0.3098);fill-opacity:1;"/>
<path d="M167.151 466.26C126.921 466.26 94.3008 433.64 94.3008 393.41V161.63C94.3008 121.4 126.921 88.78 167.151 88.78H398.931C439.161 88.78 471.781 121.4 471.781 161.63V393.41C471.781 433.64 439.161 466.26 398.931 466.26H167.151Z" fill="#DBE875" style="fill:#DBE875;fill:color(display-p3 0.8588 0.9098 0.4588);fill-opacity:1;"/>
<path d="M415.021 198.53L397.161 180.67C389.251 172.76 376.401 172.83 368.581 180.83L359.751 189.87L256.531 293.08C248.681 300.93 235.961 300.93 228.111 293.08L205.211 270.18L196.331 261.09C188.511 253.09 175.661 253.01 167.751 260.92L149.911 278.74C141.991 286.65 142.051 299.51 150.061 307.33L159.091 316.15L219.291 376.4L228.001 385.28C235.891 393.32 248.851 393.31 256.721 385.25L265.311 376.45L405.771 235.99L414.861 227.11C422.861 219.29 422.931 206.44 415.021 198.53Z" fill="#00544F" style="fill:#00544F;fill:color(display-p3 0.0000 0.3294 0.3098);fill-opacity:1;"/>
<path d="M608.83 430.13C614.92 447.79 639.83 447.98 646.19 430.41L678.05 342.38C683.36 327.71 702 323.34 713.27 334.13L834.72 450.33C844.85 460.02 860.94 459.53 870.46 449.24L895.12 422.6C904.41 412.56 903.93 396.91 894.05 387.45L773.57 272.1C762.89 261.88 765.42 244.19 778.53 237.36L840.81 204.94C856.97 196.53 854.17 172.62 836.51 168.16L531.16 91.12C512.65 86.45 496.35 104.2 502.58 122.24L608.83 430.13Z" fill="#00544F" style="fill:#00544F;fill:color(display-p3 0.0000 0.3294 0.3098);fill-opacity:1;"/>
</g>
</g>
<defs>
<clipPath id="clip0_30_2200">
<rect width="1000" height="1000" fill="white" style="fill:white;fill-opacity:1;"/>
</clipPath>
</defs>
</svg>
